Run_50002
nRows=4
nColumns=164

# SIMM Motion File Header:
name Run_50002
datacolumns 164
datarows 4
otherdata 1
range 0.05000000 0.07500000
endheader
time	pelvis_tilt	pelvis_list	pelvis_rotation	pelvis_tx	pelvis_ty	pelvis_tz	hip_flexion_r	hip_adduction_r	hip_rotation_r	knee_angle_r	ankle_angle_r	hip_flexion_l	hip_adduction_l	hip_rotation_l	knee_angle_l	ankle_angle_l	lumbar_extension	lumbar_bending	lumbar_rotation	arm_flex_r	arm_add_r	arm_rot_r	elbow_flex_r	pro_sup_r	arm_flex_l	arm_add_l	arm_rot_l	elbow_flex_l	pro_sup_l	subtalar_angle_r	mtp_angle_r	subtalar_angle_l	mtp_angle_l	wrist_flex_r	wrist_dev_r	wrist_flex_l	wrist_dev_l	LASI_tx	LASI_ty	LASI_tz	RASI_tx	RASI_ty	RASI_tz	LPSI_tx	LPSI_ty	LPSI_tz	RPSI_tx	RPSI_ty	RPSI_tz	RTH1_tx	RTH1_ty	RTH1_tz	RTH2_tx	RTH2_ty	RTH2_tz	RTH3_tx	RTH3_ty	RTH3_tz	LTH1_tx	LTH1_ty	LTH1_tz	LTH2_tx	LTH2_ty	LTH2_tz	LTH3_tx	LTH3_ty	LTH3_tz	RTB1_tx	RTB1_ty	RTB1_tz	RTB2_tx	RTB2_ty	RTB2_tz	RTB3_tx	RTB3_ty	RTB3_tz	LTB1_tx	LTB1_ty	LTB1_tz	LTB2_tx	LTB2_ty	LTB2_tz	LTB3_tx	LTB3_ty	LTB3_tz	RCAL_tx	RCAL_ty	RCAL_tz	RTOE_tx	RTOE_ty	RTOE_tz	RMT5_tx	RMT5_ty	RMT5_tz	LCAL_tx	LCAL_ty	LCAL_tz	LTOE_tx	LTOE_ty	LTOE_tz	LMT5_tx	LMT5_ty	LMT5_tz	LACR_tx	LACR_ty	LACR_tz	RACR_tx	RACR_ty	RACR_tz	CLAV_tx	CLAV_ty	CLAV_tz	C7_tx	C7_ty	C7_tz	RUA1_tx	RUA1_ty	RUA1_tz	RUA2_tx	RUA2_ty	RUA2_tz	RUA3_tx	RUA3_ty	RUA3_tz	RLEL_tx	RLEL_ty	RLEL_tz	RMEL_tx	RMEL_ty	RMEL_tz	LUA1_tx	LUA1_ty	LUA1_tz	LUA2_tx	LUA2_ty	LUA2_tz	LUA3_tx	LUA3_ty	LUA3_tz	LLEL_tx	LLEL_ty	LLEL_tz	LMEL_tx	LMEL_ty	LMEL_tz	RFAsuperior_tx	RFAsuperior_ty	RFAsuperior_tz	RFAradius_tx	RFAradius_ty	RFAradius_tz	RFAulna_tx	RFAulna_ty	RFAulna_tz	LFAsuperior_tx	LFAsuperior_ty	LFAsuperior_tz	LFAradius_tx	LFAradius_ty	LFAradius_tz	LFAulna_tx	LFAulna_ty	LFAulna_tz
      0.05000000	     -3.73241591	     -0.44001479	      3.19159044	      0.94431594	      1.03972563	     -0.65544650	     53.35304593	      0.71720523	     -5.21213587	    -91.30379547	      9.89241536	    -12.96035526	      3.37448425	      2.05760896	    -24.81701097	      8.44645503	    -13.32296132	      1.24435817	    -24.58301769	    -45.94140509	    -25.64049433	     -8.15587389	     98.82558133	    115.93831077	     -3.93871851	    -25.54803791	     -2.68738462	    126.71532165	    107.83507958	      0.00000000	      0.00000000	      0.00000000	      0.00000000	      0.00000000	      0.00000000	      0.00000000	      0.00000000	      0.93560085	      1.04267520	     -0.78770976	      0.94544014	      1.05659790	     -0.52749493	      0.76235754	      1.09310608	     -0.68308250	      0.75690983	      1.09024754	     -0.59845909	      0.94275689	      0.90978302	     -0.46898068	      1.05748756	      0.86916625	     -0.48173864	      1.07616654	      0.74430956	     -0.50209660	      0.81176876	      0.84430420	     -0.82574056	      0.82094880	      0.71354225	     -0.81159606	      0.71677269	      0.62693744	     -0.78394630	      1.16492034	      0.53007235	     -0.59740010	      1.10202554	      0.49107455	     -0.53190044	      1.05096983	      0.40755554	     -0.60540115	      0.65585133	      0.39422978	     -0.71609651	      0.57356765	      0.34291894	     -0.75703841	      0.52021351	      0.24666749	     -0.68381073	      0.86668111	      0.34844853	     -0.63102356	      1.04504932	      0.19642074	     -0.62448926	      0.96742336	      0.21498423	     -0.54205301	      0.34695748	      0.20219942	     -0.66003077	      0.53531710	      0.06454853	     -0.63592184	      0.45752000	      0.06654640	     -0.72034356	      1.00529922	      1.51066729	     -0.81222603	      0.91035361	      1.54379811	     -0.48526458	      0.99417032	      1.47329550	     -0.59780400	      0.88728398	      1.55955817	     -0.67081863	      0.82839100	      1.48658069	     -0.42321440	      0.77794121	      1.41351289	     -0.42662085	      0.71193135	      1.45966532	     -0.43171250	      0.59545789	      1.37794791	     -0.40517010	      0.59760310	      1.36829186	     -0.48806110	      1.01351125	      1.41656031	     -0.88004625	      1.03201165	      1.34988690	     -0.87232458	      0.94330492	      1.32285451	     -0.90304864	      0.99006555	      1.17188538	     -0.96637417	      0.92758180	      1.14535784	     -0.90746323	      0.65629861	      1.29390527	     -0.37451152	      0.76678394	      1.15406668	     -0.41202695	      0.71644480	      1.13905159	     -0.36105085	      1.06880219	      1.19947627	     -0.90835443	      1.14091850	      1.25714641	     -0.75482883	      1.18209146	      1.20289976	     -0.77924465
      0.05833300	     -3.97362864	     -1.14708097	      2.71243471	      0.94903255	      1.04473649	     -0.65532430	     53.33073338	      1.47070122	     -5.51771967	    -84.82881958	      9.92118980	    -16.23336763	      2.35170963	      0.74002723	    -21.46171747	      1.44735214	    -12.12531891	      2.10794544	    -24.53226768	    -48.04750257	    -25.48426369	     -9.26885909	     99.66759838	    115.58852369	     -4.75545460	    -24.32154659	     -2.15404040	    127.83682959	    107.27662854	      0.00000000	      0.00000000	      0.00000000	      0.00000000	      0.00000000	      0.00000000	      0.00000000	      0.00000000	      0.94057070	      1.04586490	     -0.78735852	      0.94832491	      1.06356040	     -0.52790574	      0.76688652	      1.09831726	     -0.68581724	      0.76434455	      1.09601622	     -0.60094470	      0.94577577	      0.91816763	     -0.46922482	      1.05916350	      0.87396165	     -0.48102809	      1.07761766	      0.74790424	     -0.50536297	      0.80611886	      0.85233477	     -0.82625391	      0.80868730	      0.72186735	     -0.81036561	      0.69979644	      0.64205366	     -0.78341409	      1.18040197	      0.52884614	     -0.59575667	      1.12169908	      0.48356060	     -0.53114887	      1.08066076	      0.39561976	     -0.60532155	      0.63078948	      0.41007850	     -0.71774991	      0.54715385	      0.36054757	     -0.75935880	      0.49740281	      0.26046843	     -0.68845249	      0.90440099	      0.31743403	     -0.63243823	      1.09728719	      0.18578080	     -0.62605590	      1.01775581	      0.19492492	     -0.54379627	      0.32854940	      0.22172116	     -0.66255133	      0.49751999	      0.06390967	     -0.63651324	      0.42152174	      0.07347520	     -0.72207401	      1.00597050	      1.51820958	     -0.80936494	      0.90739719	      1.54968023	     -0.48477425	      0.99215457	      1.48005661	     -0.59600653	      0.88634586	      1.56458618	     -0.67020760	      0.82384526	      1.49487259	     -0.42480387	      0.77275112	      1.42232075	     -0.42847319	      0.70766961	      1.46902712	     -0.43805118	      0.58977022	      1.38835435	     -0.41226787	      0.59442576	      1.37875719	     -0.49505763	      1.01491851	      1.42426930	     -0.87733482	      1.03296806	      1.35752935	     -0.86940143	      0.94382542	      1.33027679	     -0.90050174	      0.99086474	      1.17842628	     -0.96234820	      0.92770336	      1.15264328	     -0.90388146	      0.64906769	      1.30405330	     -0.38049533	      0.76082107	      1.16368052	     -0.41576531	      0.70910782	      1.14833968	     -0.36645766	      1.06855340	      1.20832904	     -0.90409015	      1.13701503	      1.27028502	     -0.75049458	      1.17905730	      1.21479065	     -0.77199809
      0.06666700	     -4.36062439	     -1.73072473	      2.19123939	      0.95326940	      1.04915641	     -0.65511473	     53.12150569	      2.23975045	     -5.61173922	    -77.93535366	      9.51381097	    -19.03444391	      1.56798699	     -0.95380004	    -18.50192594	     -5.40442095	    -10.84728576	      2.85193414	    -24.46507200	    -50.02840168	    -25.29753885	    -10.42987803	    100.49293607	    115.26867840	     -5.58039920	    -23.20627405	     -1.57675559	    128.91074506	    106.55701205	      0.00000000	      0.00000000	      0.00000000	      0.00000000	      0.00000000	      0.00000000	      0.00000000	      0.00000000	      0.94517855	      1.04920625	     -0.78691245	      0.95097826	      1.06972827	     -0.52840156	      0.77136656	      1.10357261	     -0.68851111	      0.77049164	      1.10173252	     -0.60342655	      0.94760168	      0.92482004	     -0.46972989	      1.06008215	      0.87684063	     -0.48055558	      1.07755306	      0.75006838	     -0.50880475	      0.80083944	      0.86078662	     -0.82715768	      0.79709691	      0.73039603	     -0.80964373	      0.68433185	      0.65714978	     -0.78206961	      1.19478188	      0.52699659	     -0.59429413	      1.14076976	      0.47575912	     -0.53018909	      1.10982417	      0.38384186	     -0.60484688	      0.60815973	      0.42586627	     -0.71885210	      0.52337155	      0.37800126	     -0.76100375	      0.47639975	      0.27433135	     -0.69247928	      0.94278085	      0.28724081	     -0.63303746	      1.14900057	      0.17650513	     -0.62792409	      1.06843372	      0.17610811	     -0.54559808	      0.31322811	      0.24235873	     -0.66562328	      0.46125192	      0.06543087	     -0.63791503	      0.38702111	      0.08278802	     -0.72367728	      1.00658853	      1.52536224	     -0.80646927	      0.90473998	      1.55509456	     -0.48434399	      0.99034788	      1.48614815	     -0.59424909	      0.88553682	      1.56927985	     -0.66961989	      0.81962961	      1.50258444	     -0.42636802	      0.76782747	      1.43060399	     -0.43017137	      0.70368182	      1.47773382	     -0.44413577	      0.58443182	      1.39793580	     -0.41900221	      0.59145096	      1.38816962	     -0.50160947	      1.01636426	      1.43174995	     -0.87469189	      1.03385599	      1.36491434	     -0.86667700	      0.94438212	      1.33774599	     -0.89847915	      0.99136293	      1.18478545	     -0.95872027	      0.92736521	      1.15982208	     -0.90077664	      0.64235305	      1.31349138	     -0.38606871	      0.75551594	      1.17268711	     -0.41896054	      0.70252093	      1.15704579	     -0.37125554	      1.06803620	      1.21663252	     -0.90013311	      1.13315859	      1.28263133	     -0.74669609	      1.17575405	      1.22592781	     -0.76526982
      0.07500000	     -4.89227850	     -1.86072267	      1.58548480	      0.95682636	      1.05287503	     -0.65468916	     52.74618775	      2.78826326	     -5.24949075	    -70.69245607	      8.91206086	    -21.09790254	      1.36200119	     -3.03279677	    -16.50780626	    -11.37588106	     -9.53121071	      3.07817226	    -24.36456778	    -51.71535208	    -25.00987128	    -11.55584528	    101.19761926	    115.09373900	     -6.46647410	    -22.33400549	     -0.97225789	    129.89882518	    105.50821875	      0.00000000	      0.00000000	      0.00000000	      0.00000000	      0.00000000	      0.00000000	      0.00000000	      0.00000000	      0.94918045	      1.05274635	     -0.78623284	      0.95324909	      1.07449681	     -0.52899435	      0.77563440	      1.10885826	     -0.69103512	      0.77494689	      1.10711304	     -0.60579528	      0.94765997	      0.92847097	     -0.47068118	      1.05984134	      0.87684748	     -0.48048492	      1.07538452	      0.75000792	     -0.51202534	      0.79625185	      0.86962279	     -0.82851547	      0.78677686	      0.73904348	     -0.80978638	      0.67148990	      0.67173421	     -0.77969979	      1.20719016	      0.52403579	     -0.59296616	      1.15860450	      0.46741675	     -0.52888590	      1.13800204	      0.37232977	     -0.60373461	      0.58936590	      0.44110602	     -0.71907012	      0.50371181	      0.39482809	     -0.76162037	      0.45784307	      0.28838382	     -0.69534277	      0.98216857	      0.25835414	     -0.63239575	      1.19963942	      0.16974698	     -0.63011942	      1.11954589	      0.15956447	     -0.54743443	      0.30152858	      0.26443159	     -0.66906339	      0.42747795	      0.07075500	     -0.64044354	      0.35498583	      0.09595835	     -0.72519982	      1.00708848	      1.53186089	     -0.80358244	      0.90254626	      1.55973565	     -0.48396805	      0.98888769	      1.49117581	     -0.59257313	      0.88489632	      1.57340829	     -0.66905533	      0.81596933	      1.50927685	     -0.42782817	      0.76340726	      1.43791067	     -0.43162467	      0.70020099	      1.48527169	     -0.44970114	      0.57969547	      1.40611679	     -0.42513106	      0.58885838	      1.39584609	     -0.50742161	      1.01780264	      1.43879596	     -0.87221772	      1.03459341	      1.37181206	     -0.86427495	      0.94502160	      1.34521686	     -0.89738251	      0.99136506	      1.19077598	     -0.95571273	      0.92629112	      1.16675131	     -0.89842827	      0.63651680	      1.32173785	     -0.39093913	      0.75126639	      1.18061338	     -0.42129215	      0.69717300	      1.16476973	     -0.37498996	      1.06708629	      1.22397346	     -0.89666649	      1.12940780	      1.29357795	     -0.74372498	      1.17202806	      1.23569082	     -0.75937649
